<?xml version="1.0" encoding="UTF-8"?>
<svg width="16px" height="16px" viewBox="0 0 16 16" version="1.1" xmlns="http://www.w3.org/2000/svg" xmlns:xlink="http://www.w3.org/1999/xlink">
    <!-- Generator: Sketch Beta 58 (84661) - https://sketch.com -->
    <title>icon/archive</title>
    <desc>Created with Sketch Beta.</desc>
    <g id="icon/archive" stroke="none" stroke-width="1" fill="none" fill-rule="evenodd">
        <path d="M9.5,0 C10.2796961,0 10.9204487,0.594888083 10.9931334,1.35553999 L11,1.5 L11,3 L14.5,3 C14.7761424,3 15,3.22385763 15,3.5 C15,3.74545989 14.8231248,3.94960837 14.5898756,3.99194433 L14.5,4 L14,4 L14,13.5 C14,14.8254834 12.9684641,15.9100387 11.6643757,15.9946823 L11.5,16 L4.5,16 C3.1745166,16 2.08996133,14.9684641 2.00531768,13.6643757 L2,13.5 L2,4 L1.5,4 C1.25454011,4 1.05039163,3.82312484 1.00805567,3.58987563 L1,3.5 C1,3.25454011 1.17687516,3.05039163 1.41012437,3.00805567 L1.5,3 L5,3 L5,1.5 C5,0.720303883 5.59488808,0.0795513218 6.35553999,0.00686657806 L6.5,0 L9.5,0 Z M13,4 L3,4 L3,13.5 C3,14.2796961 3.59488808,14.9204487 4.35553999,14.9931334 L4.5,15 L11.5,15 C12.2796961,15 12.9204487,14.4051119 12.9931334,13.64446 L13,13.5 L13,4 Z M6.5,7 C6.74545989,7 6.94960837,7.17687516 6.99194433,7.41012437 L7,7.5 L7,11.5 C7,11.7761424 6.77614237,12 6.5,12 C6.25454011,12 6.05039163,11.8231248 6.00805567,11.5898756 L6,11.5 L6,7.5 C6,7.22385763 6.22385763,7 6.5,7 Z M9.5,7 C9.77614237,7 10,7.22385763 10,7.5 L10,7.5 L10,11.5 C10,11.7761424 9.77614237,12 9.5,12 C9.22385763,12 9,11.7761424 9,11.5 L9,11.5 L9,7.5 C9,7.22385763 9.22385763,7 9.5,7 Z M9.5,1 L6.5,1 C6.25454011,1 6.05039163,1.17687516 6.00805567,1.41012437 L6,1.5 L6,3 L10,3 L10,1.5 C10,1.25454011 9.82312484,1.05039163 9.58987563,1.00805567 L9.5,1 Z" id="icon" fill="#333333"></path>
    </g>
</svg>