<?xml version="1.0" encoding="UTF-8"?>
<svg width="16px" height="16px" viewBox="0 0 16 16" version="1.1" xmlns="http://www.w3.org/2000/svg" xmlns:xlink="http://www.w3.org/1999/xlink">
    <!-- Generator: Sketch Beta 58 (84661) - https://sketch.com -->
    <title>icon/duplicate</title>
    <desc>Created with Sketch Beta.</desc>
    <g id="icon/duplicate" stroke="none" stroke-width="1" fill="none" fill-rule="evenodd">
        <path d="M13.5,5 C14.8807119,5 16,6.11928813 16,7.5 L16,7.5 L16,13.5 C16,14.8807119 14.8807119,16 13.5,16 L13.5,16 L7.5,16 C6.11928813,16 5,14.8807119 5,13.5 L5,13.5 L5,7.5 C5,6.11928813 6.11928813,5 7.5,5 L7.5,5 Z M13.5,6 L7.5,6 C6.67157288,6 6,6.67157288 6,7.5 L6,7.5 L6,13.5 C6,14.3284271 6.67157288,15 7.5,15 L7.5,15 L13.5,15 C14.3284271,15 15,14.3284271 15,13.5 L15,13.5 L15,7.5 C15,6.67157288 14.3284271,6 13.5,6 L13.5,6 Z M8.5,0 C9.88071187,0 11,1.11928813 11,2.5 C11,2.77614237 10.7761424,3 10.5,3 C10.2238576,3 10,2.77614237 10,2.5 C10,1.67157288 9.32842712,1 8.5,1 L8.5,1 L2.5,1 C1.67157288,1 1,1.67157288 1,2.5 L1,2.5 L1,8.5 C1,9.32842712 1.67157288,10 2.5,10 C2.77614237,10 3,10.2238576 3,10.5 C3,10.7761424 2.77614237,11 2.5,11 C1.11928813,11 0,9.88071187 0,8.5 L0,8.5 L0,2.5 C0,1.11928813 1.11928813,0 2.5,0 L2.5,0 Z" id="icon" fill="#333333"></path>
    </g>
</svg>