<?xml version="1.0" encoding="UTF-8"?>
<svg width="16px" height="16px" viewBox="0 0 16 16" version="1.1" xmlns="http://www.w3.org/2000/svg" xmlns:xlink="http://www.w3.org/1999/xlink">
    <!-- Generator: Sketch Beta 58 (84661) - https://sketch.com -->
    <title>icon/edit</title>
    <desc>Created with Sketch Beta.</desc>
    <g id="icon/edit" stroke="none" stroke-width="1" fill="none" fill-rule="evenodd">
        <path d="M6.5,2 C6.77614237,2 7,2.22385763 7,2.5 C7,2.77614237 6.77614237,3 6.5,3 L6.5,3 L2.5,3 C1.67157288,3 1,3.67157288 1,4.5 L1,4.5 L1,13.5 C1,14.3284271 1.67157288,15 2.5,15 L2.5,15 L11.5,15 C12.3284271,15 13,14.3284271 13,13.5 L13,13.5 L13,9.5 C13,9.22385763 13.2238576,9 13.5,9 C13.7761424,9 14,9.22385763 14,9.5 L14,9.5 L14,13.5 C14,14.8807119 12.8807119,16 11.5,16 L11.5,16 L2.5,16 C1.11928813,16 0,14.8807119 0,13.5 L0,13.5 L0,4.5 C0,3.11928813 1.11928813,2 2.5,2 L2.5,2 Z M12.5532622,0.750583118 C13.142423,0.270055181 14.0114854,0.304378605 14.5606602,0.853553391 L14.5606602,0.853553391 L15.1464466,1.43933983 C15.732233,2.02512627 15.732233,2.97487373 15.1464466,3.56066017 L15.1464466,3.56066017 L8.35355339,10.3535534 C8.2597852,10.4473216 8.13260824,10.5 8,10.5 L8,10.5 L6,10.5 C5.72385763,10.5 5.5,10.2761424 5.5,10 L5.5,10 L5.5,8 C5.5,7.86739176 5.55267842,7.7402148 5.64644661,7.64644661 L5.64644661,7.64644661 L12.4393398,0.853553391 Z M13.8535534,1.56066017 C13.6582912,1.36539803 13.3417088,1.36539803 13.1464466,1.56066017 L13.1464466,1.56066017 L6.5,8.20710678 L6.5,9.5 L7.79289322,9.5 L14.4393398,2.85355339 C14.634602,2.65829124 14.634602,2.34170876 14.4393398,2.14644661 L14.4393398,2.14644661 Z" id="icon" fill="#333333"></path>
    </g>
</svg>