<?xml version="1.0" encoding="UTF-8"?>
<svg width="16px" height="16px" viewBox="0 0 16 16" version="1.1" xmlns="http://www.w3.org/2000/svg" xmlns:xlink="http://www.w3.org/1999/xlink">
    <!-- Generator: Sketch Beta 58 (84661) - https://sketch.com -->
    <title>icon/view</title>
    <desc>Created with Sketch Beta.</desc>
    <g id="icon/view" stroke="none" stroke-width="1" fill="none" fill-rule="evenodd">
        <path d="M8,2 C11.0546809,2 13.6120148,3.77045159 15.6457104,7.24173478 C15.9200372,7.7099789 15.9200512,8.2898863 15.6457443,8.75820741 C13.612043,12.2295288 11.054698,14 8,14 C4.94531907,14 2.38798524,12.2295484 0.354289611,8.75826522 C0.0799628081,8.2900211 0.079948844,7.7101137 0.354255743,7.24179259 C2.38795697,3.7704712 4.945302,2 8,2 Z M8,3 C5.33704669,3 3.08483865,4.55922233 1.21711025,7.74724496 C1.12566896,7.90336165 1.12567362,8.09668328 1.21711709,8.25276671 C3.08486455,11.4407956 5.33706182,13 8,13 C10.6629533,13 12.9151613,11.4407777 14.7828897,8.25275504 C14.874331,8.09663835 14.8743264,7.90331672 14.7828829,7.74723329 C12.9151354,4.55920443 10.6629382,3 8,3 Z M8,5 C9.65685425,5 11,6.34314575 11,8 C11,9.65685425 9.65685425,11 8,11 C6.34314575,11 5,9.65685425 5,8 C5,6.34314575 6.34314575,5 8,5 Z M8,6 C6.8954305,6 6,6.8954305 6,8 C6,9.1045695 6.8954305,10 8,10 C9.1045695,10 10,9.1045695 10,8 C10,6.8954305 9.1045695,6 8,6 Z" id="icon" fill="#333333"></path>
    </g>
</svg>